<svg width="22" height="22" viewBox="0 0 22 22" fill="none" xmlns="http://www.w3.org/2000/svg">
<path d="M11 1.375C11.7293 1.375 12.4288 1.66473 12.9445 2.18046C13.4602 2.69618 13.75 3.39565 13.75 4.125V6.875H8.24997V4.125C8.24997 3.39565 8.5397 2.69618 9.05542 2.18046C9.57115 1.66473 10.2706 1.375 11 1.375ZM15.125 6.875V4.125C15.125 3.03098 14.6904 1.98177 13.9168 1.20818C13.1432 0.434597 12.094 0 11 0C9.90595 0 8.85674 0.434597 8.08315 1.20818C7.30956 1.98177 6.87497 3.03098 6.87497 4.125V6.875H4.61997C4.12617 6.87511 3.6488 7.05238 3.27461 7.37459C2.90042 7.6968 2.65425 8.14256 2.58084 8.63087L1.16872 18.0538C1.09555 18.5427 1.1287 19.0416 1.26591 19.5166C1.40313 19.9915 1.64117 20.4313 1.9638 20.8059C2.28644 21.1804 2.68607 21.481 3.13544 21.6871C3.58481 21.8932 4.07335 21.9999 4.56772 22H17.4308C17.9253 22.0001 18.414 21.8935 18.8636 21.6875C19.3131 21.4815 19.7129 21.181 20.0357 20.8064C20.3585 20.4318 20.5966 19.992 20.7339 19.5169C20.8712 19.0419 20.9044 18.5428 20.8312 18.0538L19.4177 8.63087C19.3443 8.1428 19.0984 7.69722 18.7245 7.37504C18.3506 7.05285 17.8735 6.87544 17.38 6.875H15.125ZM13.75 8.25V10.3125C13.75 10.4948 13.8224 10.6697 13.9513 10.7986C14.0803 10.9276 14.2551 11 14.4375 11C14.6198 11 14.7947 10.9276 14.9236 10.7986C15.0525 10.6697 15.125 10.4948 15.125 10.3125V8.25H17.3786C17.5432 8.25016 17.7022 8.30937 17.8269 8.41685C17.9515 8.52434 18.0335 8.67297 18.0578 8.83575L19.4713 18.2559C19.5155 18.5493 19.4957 18.8488 19.4135 19.1339C19.3313 19.419 19.1885 19.6831 18.995 19.908C18.8014 20.1329 18.5616 20.3134 18.2919 20.4371C18.0222 20.5608 17.729 20.6249 17.4322 20.625H4.56772C4.27098 20.6249 3.97776 20.5608 3.70806 20.4371C3.43836 20.3134 3.19853 20.1329 3.00496 19.908C2.81139 19.6831 2.66862 19.419 2.58641 19.1339C2.5042 18.8488 2.48448 18.5493 2.52859 18.2559L3.94209 8.83575C3.96641 8.67321 4.04816 8.52476 4.17252 8.4173C4.29688 8.30984 4.45561 8.25049 4.61997 8.25H6.87497V10.3125C6.87497 10.4948 6.9474 10.6697 7.07633 10.7986C7.20526 10.9276 7.38013 11 7.56247 11C7.7448 11 7.91967 10.9276 8.0486 10.7986C8.17753 10.6697 8.24997 10.4948 8.24997 10.3125V8.25H13.75Z" fill="#121113"/>
</svg>
