<svg width="16" height="16" viewBox="0 0 16 16" fill="none" xmlns="http://www.w3.org/2000/svg">
<path fill-rule="evenodd" clip-rule="evenodd" d="M1.646 4.646C1.69245 4.59944 1.74762 4.56249 1.80837 4.53729C1.86911 4.51208 1.93423 4.49911 2 4.49911C2.06577 4.49911 2.13089 4.51208 2.19163 4.53729C2.25238 4.56249 2.30755 4.59944 2.354 4.646L8 10.293L13.646 4.646C13.6925 4.59951 13.7477 4.56264 13.8084 4.53748C13.8692 4.51232 13.9343 4.49937 14 4.49937C14.0657 4.49937 14.1308 4.51232 14.1916 4.53748C14.2523 4.56264 14.3075 4.59951 14.354 4.646C14.4005 4.69249 14.4374 4.74768 14.4625 4.80842C14.4877 4.86916 14.5006 4.93426 14.5006 5C14.5006 5.06574 14.4877 5.13084 14.4625 5.19158C14.4374 5.25232 14.4005 5.30751 14.354 5.354L8.354 11.354C8.30755 11.4006 8.25238 11.4375 8.19163 11.4627C8.13089 11.4879 8.06577 11.5009 8 11.5009C7.93423 11.5009 7.86911 11.4879 7.80837 11.4627C7.74762 11.4375 7.69245 11.4006 7.646 11.354L1.646 5.354C1.59944 5.30755 1.56249 5.25238 1.53729 5.19163C1.51208 5.13089 1.49911 5.06577 1.49911 5C1.49911 4.93423 1.51208 4.86911 1.53729 4.80837C1.56249 4.74762 1.59944 4.69245 1.646 4.646Z" fill="black"/>
</svg>
