<svg width="22" height="22" viewBox="0 0 22 22" fill="none" xmlns="http://www.w3.org/2000/svg">
<path fill-rule="evenodd" clip-rule="evenodd" d="M19.0492 2.95075C19.1133 3.01461 19.1641 3.09048 19.1987 3.174C19.2334 3.25753 19.2512 3.34707 19.2512 3.4375C19.2512 3.52793 19.2334 3.61747 19.1987 3.701C19.1641 3.78452 19.1133 3.86039 19.0492 3.92425L3.92425 19.0492C3.79516 19.1783 3.62007 19.2509 3.4375 19.2509C3.25493 19.2509 3.07984 19.1783 2.95075 19.0492C2.82166 18.9202 2.74913 18.7451 2.74913 18.5625C2.74913 18.3799 2.82166 18.2048 2.95075 18.0757L18.0757 2.95075C18.1396 2.88673 18.2155 2.83593 18.299 2.80127C18.3825 2.76661 18.4721 2.74877 18.5625 2.74877C18.6529 2.74877 18.7425 2.76661 18.826 2.80127C18.9095 2.83593 18.9854 2.88673 19.0492 2.95075Z" fill="black"/>
<path fill-rule="evenodd" clip-rule="evenodd" d="M2.95075 2.95075C2.88673 3.01461 2.83593 3.09048 2.80127 3.174C2.76661 3.25753 2.74877 3.34707 2.74877 3.4375C2.74877 3.52793 2.76661 3.61747 2.80127 3.701C2.83593 3.78452 2.88673 3.86039 2.95075 3.92425L18.0757 19.0492C18.2048 19.1783 18.3799 19.2509 18.5625 19.2509C18.7451 19.2509 18.9202 19.1783 19.0492 19.0492C19.1783 18.9202 19.2509 18.7451 19.2509 18.5625C19.2509 18.3799 19.1783 18.2048 19.0492 18.0757L3.92425 2.95075C3.86039 2.88673 3.78452 2.83593 3.701 2.80127C3.61747 2.76661 3.52793 2.74877 3.4375 2.74877C3.34707 2.74877 3.25753 2.76661 3.174 2.80127C3.09048 2.83593 3.01461 2.88673 2.95075 2.95075Z" fill="black"/>
</svg>
