<svg width="22" height="22" viewBox="0 0 22 22" fill="none" xmlns="http://www.w3.org/2000/svg">
<g clip-path="url(#clip0_3384_6)">
<mask id="mask0_3384_6" style="mask-type:luminance" maskUnits="userSpaceOnUse" x="0" y="0" width="22" height="22">
<path d="M22 0H0V22H22V0Z" fill="white"/>
</mask>
<g mask="url(#mask0_3384_6)">
<path d="M16.1451 14.2231C17.4765 12.4063 18.0729 10.1538 17.8148 7.91622C17.5567 5.67863 16.4633 3.62098 14.7533 2.15494C13.0433 0.688904 10.8428 -0.0774069 8.59205 0.00931866C6.34128 0.0960443 4.20628 1.02941 2.61414 2.62269C1.022 4.21596 0.0901612 6.35165 0.00504621 8.60245C-0.0800689 10.8533 0.687818 13.0532 2.15508 14.7621C3.62234 16.4711 5.68077 17.5631 7.91854 17.8196C10.1563 18.076 12.4084 17.478 14.2242 16.1454H14.2229C14.2641 16.2004 14.3081 16.2526 14.3576 16.3035L19.6514 21.5973C19.9092 21.8552 20.259 22.0003 20.6238 22.0004C20.9884 22.0005 21.3383 21.8558 21.5963 21.5979C21.8544 21.3401 21.9993 20.9903 21.9995 20.6257C21.9996 20.2609 21.8548 19.911 21.597 19.653L16.3032 14.3593C16.2542 14.3095 16.2012 14.2649 16.1451 14.2231ZM16.4999 8.93764C16.4999 9.93076 16.3043 10.9142 15.9243 11.8317C15.5442 12.7492 14.9871 13.5829 14.2849 14.2852C13.5826 14.9874 12.749 15.5444 11.8314 15.9244C10.9139 16.3045 9.93051 16.5001 8.93739 16.5001C7.94427 16.5001 6.96087 16.3045 6.04335 15.9244C5.12582 15.5444 4.29215 14.9874 3.58989 14.2852C2.88765 13.5829 2.3306 12.7492 1.95055 11.8317C1.5705 10.9142 1.37489 9.93076 1.37489 8.93764C1.37489 6.93194 2.17165 5.00838 3.58989 3.59014C5.00814 2.1719 6.93169 1.37514 8.93739 1.37514C10.9431 1.37514 12.8666 2.1719 14.2849 3.59014C15.7032 5.00838 16.4999 6.93194 16.4999 8.93764Z" fill="#121113"/>
</g>
</g>
<defs>
<clipPath id="clip0_3384_6">
<rect width="22" height="22" fill="white"/>
</clipPath>
</defs>
</svg>
